<svg width="400" height="400" viewBox="0 0 400 400" fill="none" xmlns="http://www.w3.org/2000/svg">
<rect width="400" height="400" fill="#473C8B"/>
<path fill-rule="evenodd" clip-rule="evenodd" d="M311 242.68C311 255.009 300.248 265 286.978 265H114.022C100.752 265 90 255.009 90 242.68V113.222C90 103.361 98.6046 95.3654 109.217 95.3654H206.126L245.036 82.2678C247.501 81.433 250.23 82.616 251.128 84.8971L255.226 95.3654H272.565C283.178 95.3654 291.783 103.361 291.783 113.222V122.15C302.395 122.15 311 130.145 311 140.006V242.68ZM109.217 104.294C103.913 104.294 99.6087 108.293 99.6087 113.222C99.6087 118.15 103.913 122.15 109.217 122.15H125.768H126.676C126.739 122.127 126.777 122.078 126.84 122.056L179.601 104.294H109.217ZM248.918 105.102L243.816 92.0486L233.957 95.3654H233.972L207.481 104.294H207.433L154.397 122.15H255.587L248.918 105.102ZM282.174 113.222C282.174 108.293 277.869 104.294 272.565 104.294H258.714L265.7 122.15H282.174V113.222ZM291.783 131.078H109.217C105.701 131.078 102.443 130.136 99.6087 128.6V242.68C99.6087 250.077 106.066 256.072 114.022 256.072H286.978C294.939 256.072 301.391 250.077 301.391 242.68V211.431H282.174C271.561 211.431 262.957 203.436 262.957 193.575C262.957 183.714 271.561 175.719 282.174 175.719H301.391V140.006C301.391 135.078 297.087 131.078 291.783 131.078ZM301.391 202.503V184.647H282.174C276.87 184.647 272.565 188.647 272.565 193.575C272.565 198.503 276.87 202.503 282.174 202.503H301.391ZM282.174 189.111H291.783V198.039H282.174V189.111Z" fill="#D8D8D8"/>
<path d="M46.8182 282.727H50.1818L58.0909 302.045H58.3636L66.2727 282.727H69.6364V306H67V288.318H66.7727L59.5 306H56.9545L49.6818 288.318H49.4545V306H46.8182V282.727ZM78.1051 282.727V306H75.2869V282.727H78.1051ZM102.21 282.727V306H99.483L86.8011 287.727H86.5739V306H83.7557V282.727H86.483L99.2102 301.045H99.4375V282.727H102.21ZM107.849 306V282.727H110.668V293.091H123.077V282.727H125.895V306H123.077V295.591H110.668V306H107.849ZM132.491 306H129.537L138.082 282.727H140.991L149.537 306H146.582L139.628 286.409H139.446L132.491 306ZM133.582 296.909H145.491V299.409H133.582V296.909ZM165.889 288.545C165.753 287.394 165.2 286.5 164.23 285.864C163.26 285.227 162.071 284.909 160.662 284.909C159.632 284.909 158.73 285.076 157.957 285.409C157.192 285.742 156.594 286.201 156.162 286.784C155.738 287.367 155.526 288.03 155.526 288.773C155.526 289.394 155.673 289.928 155.969 290.375C156.272 290.814 156.658 291.182 157.128 291.477C157.598 291.765 158.09 292.004 158.605 292.193C159.12 292.375 159.594 292.523 160.026 292.636L162.389 293.273C162.995 293.432 163.67 293.652 164.412 293.932C165.162 294.212 165.878 294.595 166.56 295.08C167.249 295.557 167.817 296.17 168.264 296.92C168.711 297.67 168.935 298.591 168.935 299.682C168.935 300.939 168.605 302.076 167.946 303.091C167.295 304.106 166.34 304.913 165.082 305.511C163.832 306.11 162.313 306.409 160.526 306.409C158.859 306.409 157.416 306.14 156.196 305.602C154.984 305.064 154.029 304.314 153.332 303.352C152.643 302.39 152.253 301.273 152.162 300H155.071C155.147 300.879 155.442 301.606 155.957 302.182C156.48 302.75 157.139 303.174 157.935 303.455C158.738 303.727 159.601 303.864 160.526 303.864C161.601 303.864 162.567 303.689 163.423 303.341C164.279 302.985 164.957 302.492 165.457 301.864C165.957 301.227 166.207 300.485 166.207 299.636C166.207 298.864 165.991 298.235 165.56 297.75C165.128 297.265 164.56 296.871 163.855 296.568C163.151 296.265 162.389 296 161.571 295.773L158.707 294.955C156.889 294.432 155.45 293.686 154.389 292.716C153.329 291.746 152.798 290.477 152.798 288.909C152.798 287.606 153.151 286.47 153.855 285.5C154.567 284.523 155.522 283.765 156.719 283.227C157.923 282.682 159.268 282.409 160.753 282.409C162.253 282.409 163.586 282.678 164.753 283.216C165.92 283.746 166.844 284.473 167.526 285.398C168.215 286.322 168.579 287.371 168.616 288.545H165.889ZM182.568 306V282.727H196.523V285.227H185.386V293.091H195.477V295.591H185.386V306H182.568ZM204.168 282.727V306H201.349V282.727H204.168ZM228.273 282.727V306H225.545L212.864 287.727H212.636V306H209.818V282.727H212.545L225.273 301.045H225.5V282.727H228.273ZM234.866 306H231.912L240.457 282.727H243.366L251.912 306H248.957L242.003 286.409H241.821L234.866 306ZM235.957 296.909H247.866V299.409H235.957V296.909ZM273.991 282.727V306H271.264L258.582 287.727H258.355V306H255.537V282.727H258.264L270.991 301.045H271.219V282.727H273.991ZM298.358 290H295.54C295.373 289.189 295.081 288.477 294.665 287.864C294.256 287.25 293.756 286.735 293.165 286.318C292.581 285.894 291.934 285.576 291.222 285.364C290.509 285.152 289.767 285.045 288.994 285.045C287.585 285.045 286.309 285.402 285.165 286.114C284.028 286.826 283.123 287.875 282.449 289.261C281.782 290.648 281.449 292.348 281.449 294.364C281.449 296.379 281.782 298.08 282.449 299.466C283.123 300.852 284.028 301.902 285.165 302.614C286.309 303.326 287.585 303.682 288.994 303.682C289.767 303.682 290.509 303.576 291.222 303.364C291.934 303.152 292.581 302.837 293.165 302.42C293.756 301.996 294.256 301.477 294.665 300.864C295.081 300.242 295.373 299.53 295.54 298.727H298.358C298.146 299.917 297.759 300.981 297.199 301.92C296.638 302.86 295.941 303.659 295.108 304.318C294.275 304.97 293.339 305.466 292.301 305.807C291.271 306.148 290.169 306.318 288.994 306.318C287.009 306.318 285.244 305.833 283.699 304.864C282.153 303.894 280.938 302.515 280.051 300.727C279.165 298.939 278.722 296.818 278.722 294.364C278.722 291.909 279.165 289.788 280.051 288C280.938 286.212 282.153 284.833 283.699 283.864C285.244 282.894 287.009 282.409 288.994 282.409C290.169 282.409 291.271 282.58 292.301 282.92C293.339 283.261 294.275 283.761 295.108 284.42C295.941 285.072 296.638 285.867 297.199 286.807C297.759 287.739 298.146 288.803 298.358 290ZM287.812 306.091H290.04L289.858 307C290.449 307.091 290.991 307.337 291.483 307.739C291.975 308.148 292.222 308.795 292.222 309.682C292.222 310.659 291.816 311.455 291.006 312.068C290.203 312.689 289.017 313 287.449 313L287.358 311.227C288.063 311.227 288.646 311.114 289.108 310.886C289.578 310.667 289.812 310.295 289.812 309.773C289.812 309.25 289.619 308.894 289.233 308.705C288.847 308.515 288.222 308.386 287.358 308.318L287.812 306.091ZM303.866 306H300.912L309.457 282.727H312.366L320.912 306H317.957L311.003 286.409H310.821L303.866 306ZM304.957 296.909H316.866V299.409H304.957V296.909ZM337.264 288.545C337.128 287.394 336.575 286.5 335.605 285.864C334.635 285.227 333.446 284.909 332.037 284.909C331.007 284.909 330.105 285.076 329.332 285.409C328.567 285.742 327.969 286.201 327.537 286.784C327.113 287.367 326.901 288.03 326.901 288.773C326.901 289.394 327.048 289.928 327.344 290.375C327.647 290.814 328.033 291.182 328.503 291.477C328.973 291.765 329.465 292.004 329.98 292.193C330.495 292.375 330.969 292.523 331.401 292.636L333.764 293.273C334.37 293.432 335.045 293.652 335.787 293.932C336.537 294.212 337.253 294.595 337.935 295.08C338.624 295.557 339.192 296.17 339.639 296.92C340.086 297.67 340.31 298.591 340.31 299.682C340.31 300.939 339.98 302.076 339.321 303.091C338.67 304.106 337.715 304.913 336.457 305.511C335.207 306.11 333.688 306.409 331.901 306.409C330.234 306.409 328.791 306.14 327.571 305.602C326.359 305.064 325.404 304.314 324.707 303.352C324.018 302.39 323.628 301.273 323.537 300H326.446C326.522 300.879 326.817 301.606 327.332 302.182C327.855 302.75 328.514 303.174 329.31 303.455C330.113 303.727 330.976 303.864 331.901 303.864C332.976 303.864 333.942 303.689 334.798 303.341C335.654 302.985 336.332 302.492 336.832 301.864C337.332 301.227 337.582 300.485 337.582 299.636C337.582 298.864 337.366 298.235 336.935 297.75C336.503 297.265 335.935 296.871 335.23 296.568C334.526 296.265 333.764 296 332.946 295.773L330.082 294.955C328.264 294.432 326.825 293.686 325.764 292.716C324.704 291.746 324.173 290.477 324.173 288.909C324.173 287.606 324.526 286.47 325.23 285.5C325.942 284.523 326.897 283.765 328.094 283.227C329.298 282.682 330.643 282.409 332.128 282.409C333.628 282.409 334.961 282.678 336.128 283.216C337.295 283.746 338.219 284.473 338.901 285.398C339.59 286.322 339.954 287.371 339.991 288.545H337.264Z" fill="white"/>
</svg>
