<svg width="315" height="324" viewBox="0 0 315 324" fill="none" xmlns="http://www.w3.org/2000/svg">
<path fill-rule="evenodd" clip-rule="evenodd" d="M226 209.754C226 218.176 219.335 225 211.109 225H103.891C95.6653 225 89 218.176 89 209.754V121.326C89 114.591 94.3341 109.129 100.913 109.129H160.988L185.108 100.183C186.636 99.6127 188.328 100.421 188.885 101.979L191.425 109.129H202.174C208.753 109.129 214.087 114.591 214.087 121.326V127.425C220.666 127.425 226 132.886 226 139.622V209.754ZM100.913 115.228C97.625 115.228 94.9565 117.96 94.9565 121.326C94.9565 124.693 97.625 127.425 100.913 127.425H111.173H111.736C111.775 127.409 111.799 127.376 111.837 127.361L144.545 115.228H100.913ZM187.515 115.78L184.352 106.864L178.241 109.129H178.25L161.827 115.228H161.798L128.921 127.425H191.649L187.515 115.78ZM208.13 121.326C208.13 117.96 205.462 115.228 202.174 115.228H193.588L197.918 127.425H208.13V121.326ZM214.087 133.523H100.913C98.733 133.523 96.7137 132.88 94.9565 131.831V209.754C94.9565 214.806 98.9593 218.902 103.891 218.902H211.109C216.044 218.902 220.043 214.806 220.043 209.754V188.409H208.13C201.551 188.409 196.217 182.948 196.217 176.212C196.217 169.477 201.551 164.015 208.13 164.015H220.043V139.622C220.043 136.255 217.375 133.523 214.087 133.523ZM220.043 182.311V170.114H208.13C204.842 170.114 202.174 172.846 202.174 176.212C202.174 179.579 204.842 182.311 208.13 182.311H220.043ZM208.13 173.163H214.087V179.262H208.13V173.163Z" fill="#D8D8D8"/>
</svg>
