<svg width="315" height="324" viewBox="0 0 315 324" fill="none" xmlns="http://www.w3.org/2000/svg">
<path fill-rule="evenodd" clip-rule="evenodd" d="M274 243.021C274 257.372 262.664 269 248.674 269H66.3261C52.336 269 41 257.372 41 243.021V92.34C41 80.8623 50.0718 71.5564 61.2609 71.5564H163.431L204.455 56.3117C207.053 55.3401 209.93 56.717 210.877 59.3721L215.198 71.5564H233.478C244.667 71.5564 253.739 80.8623 253.739 92.34V102.732C264.928 102.732 274 112.038 274 123.515V243.021ZM61.2609 81.9482C55.6689 81.9482 51.1304 86.6037 51.1304 92.34C51.1304 98.0762 55.6689 102.732 61.2609 102.732H78.7105H79.6679C79.7337 102.706 79.7742 102.649 79.8401 102.623L135.466 81.9482H61.2609ZM208.547 82.8886L203.168 67.6959L192.774 71.5564H192.789L164.86 81.9482H164.809L108.894 102.732H215.578L208.547 82.8886ZM243.609 92.34C243.609 86.6037 239.07 81.9482 233.478 81.9482H218.875L226.24 102.732H243.609V92.34ZM253.739 113.123H61.2609C57.5531 113.123 54.1189 112.027 51.1304 110.24V243.021C51.1304 251.63 57.9381 258.608 66.3261 258.608H248.674C257.067 258.608 263.87 251.63 263.87 243.021V206.649H243.609C232.42 206.649 223.348 197.344 223.348 185.866C223.348 174.388 232.42 165.082 243.609 165.082H263.87V123.515C263.87 117.779 259.331 113.123 253.739 113.123ZM263.87 196.258V175.474H243.609C238.017 175.474 233.478 180.13 233.478 185.866C233.478 191.602 238.017 196.258 243.609 196.258H263.87ZM243.609 180.67H253.739V191.062H243.609V180.67Z" fill="#D8D8D8"/>
</svg>
